<?xml version="1.0" encoding="UTF-8" standalone="no"?><!DOCTYPE svg PUBLIC "-//W3C//DTD SVG 1.1//EN" "http://www.w3.org/Graphics/SVG/1.1/DTD/svg11.dtd"><svg width="100%" height="100%" viewBox="0 0 144 144" version="1.1" xmlns="http://www.w3.org/2000/svg" xmlns:xlink="http://www.w3.org/1999/xlink" xml:space="preserve" xmlns:serif="http://www.serif.com/" style="fill-rule:evenodd;clip-rule:evenodd;stroke-linecap:round;stroke-linejoin:round;stroke-miterlimit:1.5;"><g><path d="M35.186,14.115l-17.7,10.349l-0,81.777l17.7,-10.592" style="fill:none;stroke:#000;stroke-width:2px;"/><path d="M26.336,100.945l0.745,-0.446l-0,24.406c0.425,3.437 2.328,4.924 5.173,5.173l94.422,0l0,-98.08l-8.057,0" style="fill:none;stroke:#000;stroke-width:2px;"/><path d="M35.186,95.649l-0,-81.534l78.544,0c2.573,0.435 4.502,2.356 4.889,4.861l-0,76.599l-83.433,0.074Z" style="fill:none;stroke:#000;stroke-width:2px;"/><path d="M61.032,77.445l-0.213,-44.621l21.002,0c7.439,0.592 11.118,4.376 12.305,10.275l-0,6.618c-0.256,4.149 -2.38,7.384 -6.996,9.277l4.974,9.483c1.232,1.5 2.619,2.246 4.172,2.173l-0.053,6.701c-6.04,1.483 -10.771,-0.163 -14.02,-5.351l-5.301,-10.395l-4.902,-0.072l0.081,16.016l-11.049,-0.104Z" style="fill:none;stroke:#000;stroke-width:2px;"/><path d="M72.081,54.063l-0,-13.568l6.467,-0.022c2.154,0.117 3.816,1.512 4.269,3.904l-0,5.377c-0.256,2.578 -1.698,3.984 -4.272,4.271l-6.464,0.038Z" style="fill:none;stroke:#000;stroke-width:2px;"/><path d="M55.912,120.15l0,-16.749l8.391,0c2.331,0.355 3.496,1.781 3.903,3.903l-0,3.244c-0.643,1.233 -1.467,2.076 -2.49,2.49l2.562,4.336c0.335,0.347 0.746,0.495 1.268,0.351l-0.033,2.463c-2.333,0.704 -4.298,0.301 -5.549,-2.256l-1.838,-3.832l-2.058,-0l0,6.008l-4.156,0.042Z" style="fill:none;stroke:#000;stroke-width:2px;"/><path d="M60.243,111.217l-0,-5.028l2.792,0c1.973,1.758 1.254,4.063 -0,5.107l-2.792,-0.079Z" style="fill:none;stroke:#000;stroke-width:2px;"/><path d="M69.879,103.401l5.133,16.752l5.658,0l4.81,-16.752l-4.537,0l-3.067,13.117l-3.419,-13.117l-4.578,0Z" style="fill:none;stroke:#000;stroke-width:2px;"/><path d="M86.742,103.401l12.962,0l-0,2.788l-4.379,0l-0,13.964l-4.282,0l0,-13.964l-4.367,0l0.066,-2.788Z" style="fill:none;stroke:#000;stroke-width:2px;"/></g></svg>