<?xml version="1.0" encoding="UTF-8" standalone="no"?><!DOCTYPE svg PUBLIC "-//W3C//DTD SVG 1.1//EN" "http://www.w3.org/Graphics/SVG/1.1/DTD/svg11.dtd"><svg width="100%" height="100%" viewBox="0 0 800 600" version="1.1" xmlns="http://www.w3.org/2000/svg" xmlns:xlink="http://www.w3.org/1999/xlink" xml:space="preserve" xmlns:serif="http://www.serif.com/" style="fill-rule:evenodd;clip-rule:evenodd;stroke-linecap:round;stroke-linejoin:round;stroke-miterlimit:1.5;"><path d="M146.604,251.559c38.071,-1.247 69.134,0.154 134.201,-2.743c148.852,-6.629 315.904,-25.927 477.428,-15.938l-242.28,-4.245c-89.285,-3.305 -160.25,-10.317 -206.161,-22.397c-157.767,-42.038 -11.806,-157.781 64.227,-159.94c70.158,-2.006 -188.422,320.64 -307.195,523.024" style="fill:none;stroke:#000;stroke-width:12px;"/><path d="M119.586,377.841c165.917,-30.058 333.825,-23.772 506.456,-21.148c3.311,0.05 6.041,-2.597 6.091,-5.909c0.05,-3.311 -2.597,-6.04 -5.908,-6.09c-173.424,-2.636 -342.099,-8.857 -508.778,21.339c-3.258,0.59 -5.425,3.715 -4.834,6.973c0.59,3.259 3.715,5.425 6.973,4.835Z"/><path d="M244.873,393.008c-19.193,-11.534 36.046,-58.369 61.083,-117.155" style="fill:none;stroke:#000;stroke-width:12px;"/><path d="M345.445,192.938c-0,0 -29.01,30.084 -21.871,40.194c7.138,10.109 13.812,10.109 13.812,10.109c0,0 17.988,-10.294 20.067,-20.917c2.079,-10.622 -8.082,-27.795 -9.467,-30.162c-1.384,-2.367 3.202,-4.731 3.202,-4.731c-0,0 9.088,-1.616 10.236,2.869c1.148,4.486 2.559,5.333 1.92,14.542c-0.828,11.95 -0.858,22.936 4.629,27.866c3.012,2.707 14.037,-16.905 14.037,-16.905c7.095,-13.954 15.84,-32.496 21.889,-33.619c3.824,7.31 10.703,38.69 17.384,40.411c3.098,0.799 6.254,5.378 11.824,5.614" style="fill:none;stroke:#000;stroke-width:12px;"/><path d="M453.252,184.147c-0.345,-17.654 -35.45,20.848 -27.194,36.405c3.782,7.125 4.872,11.971 13.063,9.417c2.818,-0.879 4.906,-3.657 7.133,-6.43c1.997,-2.486 2.152,-5.466 6.955,-6.077c3.429,-0.436 18.403,-38.015 18.952,-42.981c4.444,-14.136 6.247,-27.939 7.432,-41.663" style="fill:none;stroke:#000;stroke-width:12px;"/><path d="M426.763,286.855l5.749,9.535" style="fill:none;stroke:#000;stroke-width:12px;"/><path d="M346.84,366.113c-5.316,-0.776 -9.672,-5.968 -13.521,-13.484c2.789,-11.524 4.091,-21.977 0.565,-28.95" style="fill:none;stroke:#000;stroke-width:12px;"/><path d="M329.866,330.54c0,0 -4.991,-7.518 -12.163,-5.754c-7.172,1.764 -20.794,13.211 -23.92,18.169c-3.125,4.958 -9.751,17.119 -8.262,21.393c1.49,4.273 3.708,8.233 7.105,10.08c5.212,2.834 17.557,-5.286 19.333,-6.452c2.619,-1.718 16.924,-17.273 15.121,-18.793c4.708,-6.307 5.264,-12.513 2.786,-18.643Z" style="fill:none;stroke:#000;stroke-width:12px;"/><path d="M357.77,361.286c-0,-0 9.981,-27.18 10.901,-31.419c1.186,-5.471 9.248,-5.143 9.221,1.89c-0.012,3.382 5.51,34.332 10.712,35.518c5.508,1.256 25.381,-44.469 27.634,-46.193c1.781,-1.363 16.659,24.308 14.28,24.781" style="fill:none;stroke:#000;stroke-width:12px;"/><path d="M496.517,322.025c-10.413,3.221 -14.868,11.173 -15.373,26.229c1.967,12.145 -5.184,19.572 -21.455,22.28" style="fill:none;stroke:#000;stroke-width:12px;"/><path d="M479.312,132.747c-11.07,58.065 -30.797,104.08 -16.861,111.934c10.843,-8.533 20.138,-18.081 27.848,-28.668c3.363,-19.127 9.319,-32.839 18.391,-45.002" style="fill:none;stroke:#000;stroke-width:12px;"/><path d="M496.572,228.937c13.021,-1.085 24.506,-19.791 32.608,-41.476l-2.279,19.104c18.027,9.085 45.274,2.522 71.923,-3.371c-1.592,6.161 -4.935,9.616 -9.948,10.487" style="fill:none;stroke:#000;stroke-width:12px;"/></svg>