<?xml version="1.0" encoding="UTF-8" standalone="no"?><!DOCTYPE svg PUBLIC "-//W3C//DTD SVG 1.1//EN" "http://www.w3.org/Graphics/SVG/1.1/DTD/svg11.dtd"><svg width="100%" height="100%" viewBox="0 0 144 144" version="1.1" xmlns="http://www.w3.org/2000/svg" xmlns:xlink="http://www.w3.org/1999/xlink" xml:space="preserve" xmlns:serif="http://www.serif.com/" style="fill-rule:evenodd;clip-rule:evenodd;stroke-linecap:round;stroke-linejoin:round;stroke-miterlimit:1.5;"><g><path d="M86.399,121.241l8.516,0" style="fill:none;stroke:#000;stroke-width:2px;"/><path d="M90.657,117.848l0,-11.042l3.035,-0c1.135,0.328 1.776,1.053 2.063,2.063l0,6.726c-0.23,1.203 -1.242,2.105 -2.185,2.201l-2.913,0.052Z" style="fill:none;stroke:#000;stroke-width:2px;"/><path d="M68.139,121.241l4.989,-17.601l5.97,-0l5.425,17.601l-4.664,0l-1.079,-4.085l-5.113,-0l-0.763,4.085l-4.765,0Z" style="fill:none;stroke:#000;stroke-width:2px;"/><path d="M74.47,113.682l3.331,-0l-1.667,-6.876l-1.664,6.876Z" style="fill:none;stroke:#000;stroke-width:2px;"/><path d="M35.186,14.115l-17.7,10.349l-0,81.777l17.7,-10.592" style="fill:none;stroke:#000;stroke-width:2px;"/><path d="M26.336,100.945l0.745,-0.446l-0,24.406c0.425,3.437 2.328,4.924 5.173,5.173l94.422,0l0,-98.08l-8.057,0" style="fill:none;stroke:#000;stroke-width:2px;"/><path d="M67.475,115.653l-3.988,-0c-0.513,3.731 -5.319,2.871 -5.153,-0l-0,-7.055c0.07,-2.882 5.02,-2.661 5.098,0l3.926,0c-0.213,-6.699 -11.766,-7.541 -13.254,0l0,6.859c-0.377,7.585 13.672,7.772 13.371,0.196Z" style="fill:none;stroke:#000;stroke-width:2px;"/><path d="M35.186,95.649l-0,-81.534l78.544,0c2.573,0.435 4.502,2.356 4.889,4.861l-0,76.599l-83.433,0.074Z" style="fill:none;stroke:#000;stroke-width:2px;"/><path d="M55.913,77.049l12.967,-45.051l15.114,0.083l13.786,44.985l-11.646,0l-2.678,-9.349l-13.696,0l-2.416,9.492l-11.431,-0.16Z" style="fill:none;stroke:#000;stroke-width:2px;"/><path d="M71.748,58.868l4.733,-19.142l4.75,19.104l-9.483,0.038Z" style="fill:none;stroke:#000;stroke-width:2px;"/><path d="M86.399,121.241l0,-17.601l8.362,-0c2.685,0.815 4.249,2.393 4.949,4.56l-0.009,7.634c-0.366,2.265 -1.865,4.121 -4.94,5.407" style="fill:none;stroke:#000;stroke-width:2px;"/></g></svg>